<?xml version="1.0" encoding="UTF-8"?>
<svg width="253px" height="42px" viewBox="0 0 253 42" version="1.1" xmlns="http://www.w3.org/2000/svg" xmlns:xlink="http://www.w3.org/1999/xlink">
    <title>Polar_logo</title>
    <defs>
        <polygon id="path-1" points="1.15634446 0.287852772 43.1004373 0.287852772 43.1004373 23.8823676 1.15634446 23.8823676"></polygon>
        <polygon id="path-3" points="0.795535714 0.689778971 38.9589973 0.689778971 38.9589973 12.9143201 0.795535714 12.9143201"></polygon>
    </defs>
    <g id="Sign-in" stroke="none" stroke-width="1" fill="none" fill-rule="evenodd">
        <g id="New-Chromebook-[Sign-in]" transform="translate(-792.000000, -166.000000)">
            <g id="Group" transform="translate(708.000000, 115.000000)">
                <g id="Page-1" transform="translate(84.437500, 50.000000)">
                    <path d="M249.738688,35.5293769 C249.691401,34.3998814 248.769303,34.194774 247.834687,34.194774 L245.488413,34.194774 L245.488413,39.5317807 L246.149042,39.5317807 L246.149042,37.0747065 L247.352081,37.0747065 C247.865285,37.8937313 248.378489,38.712756 248.891693,39.5317807 L249.677493,39.5317807 C249.139255,38.7099463 248.595453,37.886707 248.051652,37.0634678 C249.07806,37.0199176 249.795711,36.6673014 249.738688,35.5293769 L249.738688,35.5293769 Z M246.149042,36.5549138 L246.149042,34.6583729 L247.687263,34.6583729 C248.343719,34.6583729 249.030773,34.7904283 249.030773,35.6108579 C249.030773,36.4270729 248.343719,36.5549138 247.687263,36.5549138 L246.149042,36.5549138 Z" id="Fill-1" fill="#000000"></path>
                    <path d="M247.283098,32.0859609 C244.622503,32.0859609 242.468159,34.2283498 242.468159,36.875078 C242.468159,39.5133772 244.622503,41.6543613 247.283098,41.6543613 C249.938128,41.6543613 252.089691,39.5133772 252.089691,36.875078 C252.089691,34.2283498 249.938128,32.0859609 247.283098,32.0859609 M247.283098,41.0235858 C244.984111,41.0235858 243.241442,39.1017576 243.241442,36.875078 C243.241442,34.6399694 244.984111,32.7181412 247.283098,32.7181412 C249.569567,32.7181412 251.316408,34.6399694 251.316408,36.875078 C251.316408,39.1017576 249.569567,41.0235858 247.283098,41.0235858" id="Fill-3" fill="#000000"></path>
                    <g id="Group-7" transform="translate(52.850275, 18.978194)">
                        <mask id="mask-2" fill="white">
                            <use xlink:href="#path-1"></use>
                        </mask>
                        <g id="Clip-6"></g>
                        <path d="M43.0359787,0.287852772 C44.0095364,12.6195835 33.8219505,23.4902753 21.4828022,23.8723932 C8.4440831,24.2741789 -0.995254121,12.9623658 1.58189217,0.287852772 L43.0359787,0.287852772 Z" id="Fill-5" fill="#DE0C32" mask="url(#mask-2)"></path>
                    </g>
                    <g id="Group-10" transform="translate(55.631868, 0.715207)">
                        <mask id="mask-4" fill="white">
                            <use xlink:href="#path-3"></use>
                        </mask>
                        <g id="Clip-9"></g>
                        <path d="M38.9589973,12.9143201 C35.9173249,5.13428759 28.370862,0.48565497 20.1053571,0.696381743 C11.9427713,0.907108516 4.49366415,5.7538243 0.795535714,12.9143201 L38.9589973,12.9143201 Z" id="Fill-8" fill="#DE0C32" mask="url(#mask-4)"></path>
                    </g>
                    <path d="M12.6513822,19.2660465 L34.9388994,19.2660465 C36.4729481,19.2660465 37.8164578,18.0241633 37.9555374,16.5013112 C38.1071343,14.9068119 36.8943595,13.6312125 35.2865986,13.6312125 L8.61389938,13.6312125 C9.7432263,10.3635427 10.8781164,7.1028971 12.0032709,3.83944181 C12.2911659,3.00074925 13.1075635,2.4079046 14.007409,2.4079046 L37.4854481,2.4079046 C45.4783568,2.4079046 51.4810354,8.94043457 50.7369591,16.8469031 C50.0373884,24.4246379 43.3921617,30.4443994 35.7386075,30.447209 C30.8485663,30.4528284 25.9599159,30.4528284 21.0698747,30.457043 C19.7096755,30.457043 18.5316707,31.3083791 18.1144317,32.516546 C17.2284942,35.0789835 16.3411659,37.6526598 15.4552284,40.2193119 C15.1589887,41.0551948 14.3509358,41.6536588 13.4552627,41.6536588 L2.64181834,41.6536588 C0.729472871,41.6536588 -0.452704327,39.8428134 0.164809409,38.0642795 C1.67660543,33.6980207 3.18144746,29.3289523 4.69741587,24.9669081 C5.84899554,21.6191621 9.06590831,19.2660465 12.6513822,19.2660465" id="Fill-11" fill="#000000"></path>
                    <path d="M219.428082,41.6536588 C218.597776,38.5559753 217.767471,35.4596966 216.92882,32.362013 C216.611719,31.1875624 215.620081,30.4528284 214.412869,30.4528284 L210.944222,30.4528284 C209.584023,30.457043 208.406018,31.3083791 207.988779,32.516546 C207.097279,35.0789835 206.215513,37.6526598 205.324013,40.2207168 C205.033336,41.0551948 204.225283,41.6536588 203.333783,41.6536588 L192.516166,41.6536588 C190.60382,41.6536588 189.421643,39.8428134 190.034985,38.0642795 C191.546781,33.6980207 193.054404,29.3289523 194.567591,24.9655032 C195.723343,21.6191621 198.944428,19.2660465 202.52573,19.2660465 L224.813247,19.2660465 C226.347296,19.2660465 227.685242,18.0241633 227.829885,16.5013112 C227.977309,14.9068119 226.768707,13.6298077 225.165118,13.6298077 L198.488247,13.6298077 C199.617574,10.3635427 200.752464,7.10149226 201.877618,3.83944181 C202.169686,3.00074925 202.981911,2.40369006 203.877584,2.40369006 L227.359796,2.40369006 C235.352704,2.40369006 241.355383,8.94043457 240.611307,16.8469031 C240.116183,22.1923389 236.665616,26.7623002 231.988367,28.9903846 C233.12743,33.196491 234.270664,37.3997877 235.404164,41.6536588 L219.428082,41.6536588 Z" id="Fill-13" fill="#000000"></path>
                    <path d="M121.363702,13.6295267 C122.37203,10.7229021 123.372012,7.81206294 124.38034,4.90262862 C124.810096,3.66776973 123.975618,2.40340909 122.641844,2.40340909 L110.785302,2.40340909 C109.885457,2.40340909 109.073231,3.00187313 108.781164,3.83775599 C107.65601,7.10121129 106.525292,10.3632617 105.395965,13.6295267 L121.363702,13.6295267 Z" id="Fill-15" fill="#000000"></path>
                    <path d="M131.221113,41.6536588 L99.4233276,41.6536588 C97.5068098,41.6536588 96.3288049,39.8428134 96.9421463,38.0642795 C99.1103984,31.8000749 101.280041,25.5330607 103.448293,19.2660465 L119.411858,19.2660465 C118.669172,21.4154595 117.930659,23.5578484 117.186583,25.7058566 C116.57046,27.4843906 117.777672,29.2980457 119.690017,29.2980457 L133.237768,29.2980457 C135.150113,29.2980457 136.371233,31.0976523 135.753719,32.8761863 L133.215515,40.2207168 C132.929011,41.0551948 132.116786,41.6536588 131.221113,41.6536588" id="Fill-17" fill="#000000"></path>
                    <path d="M167.942457,3.15893482 C165.013439,6.65137987 162.088594,10.1368007 159.158185,13.6292458 L182.819809,13.6292458 C182.529133,10.4360327 182.228721,7.24141484 181.932481,4.04960664 C181.842079,3.08447802 181.050716,2.40312812 180.081331,2.40312812 L169.559954,2.40312812 C168.934095,2.40312812 168.341616,2.68269231 167.942457,3.15893482" id="Fill-19" fill="#000000"></path>
                    <path d="M171.141289,41.6536588 L183.102141,41.6536588 C184.306571,41.6536588 185.314899,40.563499 185.200853,39.3651661 C184.579167,32.6696741 183.963044,25.965753 183.341358,19.2660465 L154.425304,19.2660465 C149.440689,25.2155657 144.460246,31.155251 139.470067,37.1019605 C137.952708,38.9128059 139.013886,41.6536588 141.443607,41.6536588 L150.952485,41.6536588 C151.574171,41.6536588 152.165259,41.3445929 152.565809,40.8697552 C155.181897,37.7495942 157.797986,34.6322428 160.414075,31.5106768 C160.988474,30.8293269 161.845204,30.4528284 162.743659,30.4528284 L165.956399,30.4528284 C167.347196,30.4528284 168.494603,31.4109328 168.621166,32.8031344 C168.846475,35.1941808 169.063439,37.5866321 169.285967,39.9748689 C169.376368,40.9428072 170.171904,41.6536588 171.141289,41.6536588" id="Fill-21" fill="#000000"></path>
                </g>
            </g>
        </g>
    </g>
</svg>